<svg id="visual" viewBox="0 0 900 600" width="900" height="600" xmlns="http://www.w3.org/2000/svg" xmlns:xlink="http://www.w3.org/1999/xlink" version="1.1"><rect x="0" y="0" width="900" height="600" fill="#FFFFFF"></rect><defs><linearGradient id="grad1_0" x1="33.3%" y1="0%" x2="100%" y2="100%"><stop offset="20%" stop-color="#06a89b" stop-opacity="1"></stop><stop offset="80%" stop-color="#06a89b" stop-opacity="1"></stop></linearGradient></defs><defs><linearGradient id="grad1_1" x1="33.3%" y1="0%" x2="100%" y2="100%"><stop offset="20%" stop-color="#06a89b" stop-opacity="1"></stop><stop offset="80%" stop-color="#9cd4cc" stop-opacity="1"></stop></linearGradient></defs><defs><linearGradient id="grad1_2" x1="33.3%" y1="0%" x2="100%" y2="100%"><stop offset="20%" stop-color="#ffffff" stop-opacity="1"></stop><stop offset="80%" stop-color="#9cd4cc" stop-opacity="1"></stop></linearGradient></defs><defs><linearGradient id="grad2_0" x1="0%" y1="0%" x2="66.7%" y2="100%"><stop offset="20%" stop-color="#06a89b" stop-opacity="1"></stop><stop offset="80%" stop-color="#06a89b" stop-opacity="1"></stop></linearGradient></defs><defs><linearGradient id="grad2_1" x1="0%" y1="0%" x2="66.7%" y2="100%"><stop offset="20%" stop-color="#9cd4cc" stop-opacity="1"></stop><stop offset="80%" stop-color="#06a89b" stop-opacity="1"></stop></linearGradient></defs><defs><linearGradient id="grad2_2" x1="0%" y1="0%" x2="66.7%" y2="100%"><stop offset="20%" stop-color="#9cd4cc" stop-opacity="1"></stop><stop offset="80%" stop-color="#ffffff" stop-opacity="1"></stop></linearGradient></defs><g transform="translate(900, 0)"><path d="M0 378.6C-40.2 324.2 -80.3 269.8 -141.5 245.1C-202.7 220.3 -284.8 225.2 -327.9 189.3C-370.9 153.4 -374.7 76.7 -378.6 0L0 0Z" fill="#cee9e5"></path><path d="M0 252.4C-26.8 216.1 -53.6 179.9 -94.3 163.4C-135.1 146.9 -189.9 150.1 -218.6 126.2C-247.3 102.3 -249.8 51.1 -252.4 0L0 0Z" fill="#66beb3"></path><path d="M0 126.2C-13.4 108.1 -26.8 89.9 -47.2 81.7C-67.6 73.4 -94.9 75.1 -109.3 63.1C-123.6 51.1 -124.9 25.6 -126.2 0L0 0Z" fill="#06a89b"></path></g><g transform="translate(0, 600)"><path d="M0 -378.6C41 -325.6 81.9 -272.6 143 -247.7C204.1 -222.8 285.2 -225.9 327.9 -189.3C370.5 -152.7 374.5 -76.3 378.6 0L0 0Z" fill="#cee9e5"></path><path d="M0 -252.4C27.3 -217.1 54.6 -181.7 95.3 -165.1C136 -148.5 190.2 -150.6 218.6 -126.2C247 -101.8 249.7 -50.9 252.4 0L0 0Z" fill="#66beb3"></path><path d="M0 -126.2C13.7 -108.5 27.3 -90.9 47.7 -82.6C68 -74.3 95.1 -75.3 109.3 -63.1C123.5 -50.9 124.8 -25.4 126.2 0L0 0Z" fill="#06a89b"></path></g></svg>