<svg id="visual" viewBox="0 0 900 600" width="900" height="600" xmlns="http://www.w3.org/2000/svg" xmlns:xlink="http://www.w3.org/1999/xlink" version="1.1"><rect x="0" y="0" width="900" height="600" fill="#0f172b"></rect><defs><linearGradient id="grad1_0" x1="33.3%" y1="0%" x2="100%" y2="100%"><stop offset="20%" stop-color="#06a89b" stop-opacity="1"></stop><stop offset="80%" stop-color="#06a89b" stop-opacity="1"></stop></linearGradient></defs><defs><linearGradient id="grad1_1" x1="33.3%" y1="0%" x2="100%" y2="100%"><stop offset="20%" stop-color="#06a89b" stop-opacity="1"></stop><stop offset="80%" stop-color="#005b75" stop-opacity="1"></stop></linearGradient></defs><defs><linearGradient id="grad1_2" x1="33.3%" y1="0%" x2="100%" y2="100%"><stop offset="20%" stop-color="#0f172b" stop-opacity="1"></stop><stop offset="80%" stop-color="#005b75" stop-opacity="1"></stop></linearGradient></defs><defs><linearGradient id="grad2_0" x1="0%" y1="0%" x2="66.7%" y2="100%"><stop offset="20%" stop-color="#06a89b" stop-opacity="1"></stop><stop offset="80%" stop-color="#06a89b" stop-opacity="1"></stop></linearGradient></defs><defs><linearGradient id="grad2_1" x1="0%" y1="0%" x2="66.7%" y2="100%"><stop offset="20%" stop-color="#005b75" stop-opacity="1"></stop><stop offset="80%" stop-color="#06a89b" stop-opacity="1"></stop></linearGradient></defs><defs><linearGradient id="grad2_2" x1="0%" y1="0%" x2="66.7%" y2="100%"><stop offset="20%" stop-color="#005b75" stop-opacity="1"></stop><stop offset="80%" stop-color="#0f172b" stop-opacity="1"></stop></linearGradient></defs><g transform="translate(900, 0)"><path d="M0 378.6C-77.6 375.3 -155.2 371.9 -189.3 327.9C-223.4 283.8 -213.9 198.9 -238.2 137.5C-262.4 76.1 -320.5 38 -378.6 0L0 0Z" fill="#083752"></path><path d="M0 252.4C-51.7 250.2 -103.5 248 -126.2 218.6C-148.9 189.2 -142.6 132.6 -158.8 91.7C-175 50.7 -213.7 25.4 -252.4 0L0 0Z" fill="#00818e"></path><path d="M0 126.2C-25.9 125.1 -51.7 124 -63.1 109.3C-74.5 94.6 -71.3 66.3 -79.4 45.8C-87.5 25.4 -106.8 12.7 -126.2 0L0 0Z" fill="#06a89b"></path></g><g transform="translate(0, 600)"><path d="M0 -378.6C75.9 -374.3 151.8 -369.9 189.3 -327.9C226.8 -285.8 226 -205.9 251.1 -145C276.3 -84.1 327.4 -42 378.6 0L0 0Z" fill="#083752"></path><path d="M0 -252.4C50.6 -249.5 101.2 -246.6 126.2 -218.6C151.2 -190.5 150.7 -137.3 167.4 -96.7C184.2 -56 218.3 -28 252.4 0L0 0Z" fill="#00818e"></path><path d="M0 -126.2C25.3 -124.8 50.6 -123.3 63.1 -109.3C75.6 -95.3 75.3 -68.6 83.7 -48.3C92.1 -28 109.1 -14 126.2 0L0 0Z" fill="#06a89b"></path></g></svg>